<?xml version="1.0" encoding="UTF-8"?>
<svg width="24" height="24" viewBox="0 0 24 24" fill="none" xmlns="http://www.w3.org/2000/svg">
  <path d="M12 2L14.4 9.6H22.2L16 14.4L18.4 22L12 17.2L5.6 22L8 14.4L1.8 9.6H9.6L12 2Z" fill="#00B0F0"/>
  <path d="M12 8C13.1046 8 14 7.10457 14 6C14 4.89543 13.1046 4 12 4C10.8954 4 10 4.89543 10 6C10 7.10457 10.8954 8 12 8Z" fill="white"/>
  <path d="M15 11H9C8.44772 11 8 11.4477 8 12V13C8 13.5523 8.44772 14 9 14H15C15.5523 14 16 13.5523 16 13V12C16 11.4477 15.5523 11 15 11Z" fill="white"/>
</svg> 