<?xml version="1.0" encoding="UTF-8"?>
<svg width="24" height="24" viewBox="0 0 24 24" fill="none" xmlns="http://www.w3.org/2000/svg">
  <path d="M3 18C3.6 18 4.1 18.2 4.5 18.6C4.9 19 5.4 19.2 6 19.2C6.6 19.2 7.1 19 7.5 18.6C7.9 18.2 8.4 18 9 18C9.6 18 10.1 18.2 10.5 18.6C10.9 19 11.4 19.2 12 19.2C12.6 19.2 13.1 19 13.5 18.6C13.9 18.2 14.4 18 15 18C15.6 18 16.1 18.2 16.5 18.6C16.9 19 17.4 19.2 18 19.2C18.6 19.2 19.1 19 19.5 18.6C19.9 18.2 20.4 18 21 18V16.2C20.4 16.2 19.9 16 19.5 15.6C19.1 15.2 18.6 15 18 15C17.4 15 16.9 15.2 16.5 15.6C16.1 16 15.6 16.2 15 16.2C14.4 16.2 13.9 16 13.5 15.6C13.1 15.2 12.6 15 12 15C11.4 15 10.9 15.2 10.5 15.6C10.1 16 9.6 16.2 9 16.2C8.4 16.2 7.9 16 7.5 15.6C7.1 15.2 6.6 15 6 15C5.4 15 4.9 15.2 4.5 15.6C4.1 16 3.6 16.2 3 16.2V18Z" fill="#00B0F0"/>
  <path d="M3 13C3.6 13 4.1 13.2 4.5 13.6C4.9 14 5.4 14.2 6 14.2C6.6 14.2 7.1 14 7.5 13.6C7.9 13.2 8.4 13 9 13C9.6 13 10.1 13.2 10.5 13.6C10.9 14 11.4 14.2 12 14.2C12.6 14.2 13.1 14 13.5 13.6C13.9 13.2 14.4 13 15 13C15.6 13 16.1 13.2 16.5 13.6C16.9 14 17.4 14.2 18 14.2C18.6 14.2 19.1 14 19.5 13.6C19.9 13.2 20.4 13 21 13V11.2C20.4 11.2 19.9 11 19.5 10.6C19.1 10.2 18.6 10 18 10C17.4 10 16.9 10.2 16.5 10.6C16.1 11 15.6 11.2 15 11.2C14.4 11.2 13.9 11 13.5 10.6C13.1 10.2 12.6 10 12 10C11.4 10 10.9 10.2 10.5 10.6C10.1 11 9.6 11.2 9 11.2C8.4 11.2 7.9 11 7.5 10.6C7.1 10.2 6.6 10 6 10C5.4 10 4.9 10.2 4.5 10.6C4.1 11 3.6 11.2 3 11.2V13Z" fill="#00B0F0"/>
  <path d="M21 8V6L12 3L3 6V8H21Z" fill="#00B0F0"/>
</svg> 